<svg xmlns="http://www.w3.org/2000/svg" viewBox="0 0 581.13 246.62"><defs><style>.cls-1{opacity:0.3;}.cls-2{fill:#272525;}.cls-3{fill:#90acd4;}.cls-4{fill:#4b6589;}.cls-5{fill:#f1f1f2;}.cls-6{fill:#a6a8aa;}</style></defs><title>Asset 1</title><g id="Layer_2" data-name="Layer 2"><g id="Object"><g class="cls-1"><ellipse class="cls-2" cx="140.88" cy="239.31" rx="88.56" ry="7.31"/></g><path class="cls-3" d="M235.5,70.42a13.72,13.72,0,0,1,5.64-18.56L213.45,0,0,114l27.69,51.86A13.72,13.72,0,0,1,40.62,190L68.31,241.9l213.45-114-27.7-51.87A13.71,13.71,0,0,1,235.5,70.42Z"/><path class="cls-4" d="M220.14,25.07,217,19.13l-6.89,3.68-3.51-6.57L17.32,117.3l3.51,6.57-6.89,3.68,3.17,5.93L24,129.8,27.33,136l-6.89,3.68,3.17,5.93L30.5,142l3.33,6.24-6.89,3.68,3.17,5.93L37,154.14l0,0h0a19.7,19.7,0,1,1,18.55,34.75h0l0-.08-6.89,3.68,3.17,5.94,6.89-3.68L62,200.94l-6.89,3.68,3.17,5.94,6.89-3.68,3.33,6.23L61.6,216.8l3.17,5.93,6.89-3.68,3.53,6.61,189.24-101L260.9,118l6.9-3.68-3.17-5.94-6.9,3.68-3.32-6.23,6.89-3.68-3.17-5.94-6.89,3.68-3.33-6.23L254.8,90,251.63,84l-6.89,3.68,0,.08a19.7,19.7,0,0,1-18.56-34.75l0,0,6.89-3.68L230,43.47l-6.89,3.68-3.33-6.23,6.89-3.68-3.17-5.94L216.58,35l-3.33-6.23Z"/><path class="cls-5" d="M211.64,53.91l-12-22.55L33.76,119.91l12,22.55c12.58-6.71,21.87,1.42,28.59,14s8.3,24.82-4.27,31.53l12,22.56L248,122,236,99.44c-12.57,6.72-21.87-1.42-28.58-14S199.07,60.62,211.64,53.91Z"/><rect class="cls-6" x="113.18" y="92.07" width="3.76" height="86.82" transform="translate(-50.25 70.17) rotate(-28.1)"/><rect class="cls-6" x="118.31" y="127.71" width="95.57" height="3.76" transform="translate(-41.46 93.52) rotate(-28.1)"/><polygon class="cls-6" points="72.65 108.91 81.53 115.28 91.8 111.57 88.49 121.98 95.19 130.6 84.27 130.67 78.14 139.71 74.7 129.35 64.21 126.31 73 119.83 72.65 108.91"/><path class="cls-6" d="M109.44,169.55c.07.12,0,.25-.35.39l-.39.21-.32.17c-.19.1-.29.2-.29.28a2.09,2.09,0,0,0,.27.62l5.43,10.18q.51.94.57,1.11c0,.11,0,.18,0,.21s-.19,0-.35-.06l-4-2.11q-3.52-1.85-8.65-4.68l5.29,9.91a.37.37,0,0,0,.43.16,10,10,0,0,0,1.24-.56c.15-.09.25-.08.3,0s0,.26-.36.43l-1,.48c-.19.09-.38.18-.56.28l-.29.2a10.58,10.58,0,0,1-1,.57l-.18.09c-.27.15-.43.17-.49.06s0-.22.27-.35a3.7,3.7,0,0,0,1.14-.78c.07-.14,0-.42-.23-.84l-4.67-8.74c-.52-1-1.05-1.49-1.59-1.53a2.48,2.48,0,0,0-1.1.36c-.31.17-.49.19-.56.06s0-.21.18-.31.54-.27.92-.44l.6-.28.49-.28a12.8,12.8,0,0,0,1.1-.66l11,5.86L108,171.69c-.19-.37-.32-.58-.37-.66a.27.27,0,0,0-.24-.1,4.17,4.17,0,0,0-.88.39c-.42.23-.67.29-.72.19s0-.26.33-.41l.62-.33.49-.26.34-.18.32-.17.53-.29.55-.29Q109.35,169.37,109.44,169.55Z"/><path class="cls-6" d="M120.75,174.18a4.73,4.73,0,0,1,.49,3.44,3.86,3.86,0,0,1-2,2.55,4,4,0,0,1-3.31.28,4.62,4.62,0,0,1-2.61-2.3,4.84,4.84,0,0,1-.52-3.51,4,4,0,0,1,5.3-2.81A4.79,4.79,0,0,1,120.75,174.18Zm-1.63.85a7.17,7.17,0,0,0-2.21-2.71,1.8,1.8,0,0,0-1.92,0,1.93,1.93,0,0,0-1,1.84,6.72,6.72,0,0,0,1,3.12,6.26,6.26,0,0,0,2.08,2.48,2.09,2.09,0,0,0,2.19.11,1.5,1.5,0,0,0,.87-1.26A6.66,6.66,0,0,0,119.12,175Z"/><path class="cls-6" d="M124.79,175.88a1,1,0,0,1,.08.82,1,1,0,0,1-.51.63,1.1,1.1,0,0,1-.83.09,1.13,1.13,0,0,1-.73-1.36,1.07,1.07,0,0,1,.54-.64,1,1,0,0,1,.81-.08A1.1,1.1,0,0,1,124.79,175.88Z"/><path class="cls-6" d="M172.31,145.49a10.12,10.12,0,0,1-1.12-3,3.78,3.78,0,0,1,.19-2.17,3,3,0,0,1,1.44-1.5,3.22,3.22,0,0,1,1.54-.42,3,3,0,0,1,1.45.39,5.62,5.62,0,0,1,1.37,1.11,11.11,11.11,0,0,1,1.43,2.17,10,10,0,0,1,1.12,2.94,3.88,3.88,0,0,1-.18,2.17,3.06,3.06,0,0,1-1.45,1.51,3,3,0,0,1-2.73.17A7.17,7.17,0,0,1,172.31,145.49Zm1.22-.65a7,7,0,0,0,2.25,2.87,1.81,1.81,0,0,0,2.75-1.47,10.56,10.56,0,0,0-3.39-6.34,1.84,1.84,0,0,0-1.8,0,1.71,1.71,0,0,0-.94,1.39A7,7,0,0,0,173.53,144.84Z"/><path class="cls-6" d="M188,141.77l.61,1.14-6.39,3.42a2.25,2.25,0,0,1-.31-.9,5,5,0,0,1,.1-1.7,13.68,13.68,0,0,1,.77-2.3,14.93,14.93,0,0,0,1-3.18,2.8,2.8,0,0,0-.21-1.73,1.81,1.81,0,0,0-1.14-.92,2.32,2.32,0,0,0-2.67,1.47,2.2,2.2,0,0,0,.24,1.7l-1.29.53a3.43,3.43,0,0,1-.17-2.59,3.65,3.65,0,0,1,1.82-1.89,3.46,3.46,0,0,1,2.61-.4,2.83,2.83,0,0,1,1.83,1.48,3.22,3.22,0,0,1,.37,1.27,4.94,4.94,0,0,1-.15,1.6,24.06,24.06,0,0,1-.92,2.68,20.5,20.5,0,0,0-.73,2,4.42,4.42,0,0,0-.15.91Z"/><path class="cls-6" d="M195.51,137.76l.61,1.14-6.39,3.42a2.46,2.46,0,0,1-.3-.9,5.05,5.05,0,0,1,.09-1.71,13.92,13.92,0,0,1,.77-2.29,14.93,14.93,0,0,0,1-3.18,2.8,2.8,0,0,0-.21-1.73,1.78,1.78,0,0,0-1.14-.92,2.34,2.34,0,0,0-2.67,1.47,2.2,2.2,0,0,0,.24,1.7l-1.29.53a3.43,3.43,0,0,1-.17-2.59,3.65,3.65,0,0,1,1.82-1.89,3.47,3.47,0,0,1,2.61-.4,2.83,2.83,0,0,1,1.83,1.48,3.19,3.19,0,0,1,.38,1.27,5,5,0,0,1-.16,1.6,24.06,24.06,0,0,1-.92,2.68c-.4,1-.64,1.62-.73,1.94a4.65,4.65,0,0,0-.15.91Z"/><path class="cls-6" d="M196.38,135.89l1.08-.71a2.29,2.29,0,0,0,1.18.87,1.69,1.69,0,0,0,1.24-.2,2.11,2.11,0,0,0,.83-.76,2.29,2.29,0,0,0,.31-1,4.24,4.24,0,0,0-.16-1.37,6.53,6.53,0,0,0-.59-1.54l-.14-.24a2.94,2.94,0,0,1-.48,1.44,3.13,3.13,0,0,1-3.64,1.28,3.59,3.59,0,0,1-2.06-1.85,3.71,3.71,0,0,1-.4-2.83,3.31,3.31,0,0,1,1.7-2.06,3.54,3.54,0,0,1,3.95.4,8,8,0,0,1,1.86,2.51,10.17,10.17,0,0,1,1.18,3.16,3.89,3.89,0,0,1-.31,2.31,3.43,3.43,0,0,1-1.56,1.57,3,3,0,0,1-2.19.36A3,3,0,0,1,196.38,135.89ZM199,129a2.69,2.69,0,0,0-1.41-1.33,1.93,1.93,0,0,0-1.63.1,2.07,2.07,0,0,0-1,1.38,2.76,2.76,0,0,0,.31,2,2.34,2.34,0,0,0,1.36,1.2,2,2,0,0,0,1.68-.16,2,2,0,0,0,1.05-1.3A2.58,2.58,0,0,0,199,129Z"/><path class="cls-6" d="M203.55,131.66l1.1-.79a2.94,2.94,0,0,0,1.47,1.08,1.93,1.93,0,0,0,1.44-.2,2.17,2.17,0,0,0,1.1-1.33,2.2,2.2,0,0,0-.19-1.75,2.07,2.07,0,0,0-1.25-1.06,2.14,2.14,0,0,0-1.65.19,4,4,0,0,0-.76.58l-.43-1.11a1,1,0,0,0,.2-.09,2.7,2.7,0,0,0,1.15-1.12,1.54,1.54,0,0,0,0-1.55,1.64,1.64,0,0,0-1-.84,1.77,1.77,0,0,0-1.37.18,1.79,1.79,0,0,0-.92,1.05,2.5,2.5,0,0,0,.1,1.62l-1.3.42a3.44,3.44,0,0,1,0-2.37,3.2,3.2,0,0,1,1.57-1.68,3.51,3.51,0,0,1,1.64-.44,2.78,2.78,0,0,1,1.52.38,2.7,2.7,0,0,1,1,1.06,2.28,2.28,0,0,1,.28,1.32,2.63,2.63,0,0,1-.56,1.35,2.49,2.49,0,0,1,1.77.11,2.84,2.84,0,0,1,1.31,1.3,3.25,3.25,0,0,1,.22,2.64,3.67,3.67,0,0,1-1.87,2.13,3.41,3.41,0,0,1-2.51.37A3.35,3.35,0,0,1,203.55,131.66Z"/><path class="cls-6" d="M211.44,124a2.55,2.55,0,0,1-1.51-.18,2.36,2.36,0,0,1-1-1,2.65,2.65,0,0,1-.19-2.18,3.6,3.6,0,0,1,4.06-2.15,2.65,2.65,0,0,1,1.73,1.38,2.22,2.22,0,0,1,.27,1.36,2.45,2.45,0,0,1-.66,1.34,2.88,2.88,0,0,1,1.86.21A2.92,2.92,0,0,1,217.3,124a3.15,3.15,0,0,1,.23,2.56,4.07,4.07,0,0,1-4.62,2.46,3.18,3.18,0,0,1-2-1.65,2.88,2.88,0,0,1-.37-1.83A2.74,2.74,0,0,1,211.44,124Zm.69,2.79a2.4,2.4,0,0,0,.77.85,2,2,0,0,0,1.1.36,2.42,2.42,0,0,0,1.17-.29,2.21,2.21,0,0,0,1.11-1.3,2.13,2.13,0,0,0-.19-1.68,2.16,2.16,0,0,0-1.33-1.12,2.22,2.22,0,0,0-1.72.2,2.14,2.14,0,0,0-1.1,1.3A2.17,2.17,0,0,0,212.13,126.77Zm-2-4.67a1.67,1.67,0,0,0,1,.88,1.75,1.75,0,0,0,1.38-.17,1.71,1.71,0,0,0,.89-1,1.62,1.62,0,0,0-.12-1.29,1.71,1.71,0,0,0-1-.86,1.9,1.9,0,0,0-2.26,1.2A1.59,1.59,0,0,0,210.13,122.1Z"/><path class="cls-4" d="M314.92,217.62l20.85-46.87h9.33v71h-9.72V188.57l.49,3.13-17.48,40.18h-6.94L294,192.67l.49-4.1v53.17h-9.72v-71h9.33Z"/><path class="cls-4" d="M362.67,241.74v-71h10v71Zm4.84-61.52v-9.47h40.77v9.47Zm0,31v-9.48h35.4v9.48Zm0,30.51v-9.47h40.77v9.47Z"/><path class="cls-4" d="M422.44,241.74v-71h10v71Zm4.83-61.52v-9.47h40.78v9.47Zm0,31v-9.48h35.4v9.48Zm0,30.51v-9.47h40.78v9.47Z"/><path class="cls-4" d="M474.39,180.22v-9.47h50.1v9.47Zm20.07,61.52V176.56h10v65.18Z"/><path class="cls-4" d="M581.13,170.75,559.5,212.89v28.85h-10V212.89l-21.63-42.14H539l15.53,32,15.53-32Z"/><path class="cls-3" d="M310,210.13l20.85-46.88h9.33v71h-9.72V181.08l.49,3.12-17.48,40.19h-6.94L289,185.18l.49-4.1v53.17h-9.72v-71h9.33Z"/><path class="cls-3" d="M357.71,234.25v-71h10v71Zm4.84-61.52v-9.48h40.77v9.48Zm0,31v-9.47H398v9.47Zm0,30.52v-9.47h40.77v9.47Z"/><path class="cls-3" d="M417.48,234.25v-71h10v71Zm4.83-61.52v-9.48h40.78v9.48Zm0,31v-9.47h35.41v9.47Zm0,30.52v-9.47h40.78v9.47Z"/><path class="cls-3" d="M469.43,172.73v-9.48h50.1v9.48Zm20.07,61.52V169.06h10v65.19Z"/><path class="cls-3" d="M576.17,163.25l-21.63,42.14v28.86h-10V205.39L523,163.25H534l15.53,32,15.53-32Z"/></g></g></svg>